<svg width="145" height="50" viewBox="0 0 145 50" fill="none" xmlns="http://www.w3.org/2000/svg">
<path d="M7.4007 10.5436L12.5948 5.62789C13.5707 4.69453 13.6022 3.17005 12.6578 2.20558C11.5245 1.02332 9.63574 0.992211 8.43952 2.11224L1.86031 8.36574C1.82883 8.39685 1.82883 8.42796 1.79735 8.42796C1.76587 8.45907 1.70291 8.49019 1.67143 8.5213C0.601128 9.54799 0.569649 11.2591 1.60847 12.317L1.79735 12.5036L8.3136 19.1927C9.35242 20.2505 11.0838 20.2816 12.1541 19.2549C13.2244 18.2282 13.2559 16.5171 12.2171 15.4593L7.4007 10.5436Z" fill="#00A9AD"/>
<path d="M22.133 1.33463L22.6366 1.49019C23.9273 1.89465 24.6513 3.23246 24.2736 4.50805L20.0868 18.0417C19.6146 19.5973 17.9462 20.4685 16.3722 20.0018C15.0815 19.5973 14.3575 18.2595 14.7353 16.9839L19.048 2.98357C19.4572 1.67686 20.8423 0.930177 22.133 1.33463Z" fill="#00A9AD"/>
<path d="M29.7512 1.20996C29.7197 1.20996 29.7197 1.20996 29.6882 1.20996H24.9033C25.0922 1.20996 25.6903 1.36552 26.1625 2.14332C26.5088 2.85889 26.4143 3.69892 26.3829 3.76114C26.3829 3.79225 26.3829 3.79225 26.3829 3.79225C26.3199 4.04115 26.2884 4.32115 26.2884 4.60116C26.2884 6.46788 27.8309 7.99236 29.7197 7.99236C31.6085 7.99236 33.151 6.46788 33.151 4.60116C33.151 2.73445 31.6399 1.20996 29.7512 1.20996Z" fill="#FDC039"/>
<path d="M31.1676 47.3171C31.1046 47.3171 31.0417 47.286 30.9787 47.2238C30.9158 47.1616 30.8843 47.0993 30.8843 47.006C30.8843 46.9749 30.8843 46.9438 30.9158 46.8816L34.2211 38.1391C34.2526 38.0458 34.3155 37.9835 34.3785 37.8902C34.4415 37.828 34.5674 37.7969 34.6933 37.7969H36.2043C36.3302 37.7969 36.4562 37.828 36.5191 37.8902C36.5821 37.9524 36.645 38.0458 36.6765 38.1391L39.9819 46.8816C39.9819 46.9127 39.9819 46.9749 39.9819 47.006C39.9819 47.0993 39.9504 47.1616 39.8874 47.2238C39.8245 47.286 39.7615 47.3171 39.6986 47.3171H38.5023C38.3764 47.3171 38.282 47.286 38.219 47.2238C38.1561 47.1616 38.1246 47.0993 38.0931 47.0682L37.4635 45.4193H33.3712L32.7416 47.0682C32.7101 47.1305 32.6786 47.1927 32.6157 47.2238C32.5527 47.286 32.4583 47.3171 32.3323 47.3171H31.1676ZM33.8748 43.8326H36.9913L35.4173 39.6325L33.8748 43.8326Z" fill="#585959"/>
<path d="M45.4909 47.4422C44.8298 47.4422 44.2632 47.3177 43.7595 47.0688C43.2558 46.8199 42.8781 46.4777 42.5948 46.011C42.3114 45.5443 42.154 44.9843 42.1226 44.331C42.1226 44.2065 42.1226 44.0198 42.1226 43.8021C42.1226 43.5843 42.1226 43.3976 42.1226 43.242C42.154 42.5887 42.3114 42.0287 42.5948 41.562C42.8781 41.0953 43.2558 40.7531 43.7595 40.5042C44.2632 40.2553 44.8298 40.1309 45.4909 40.1309C46.089 40.1309 46.5612 40.2242 47.0019 40.3798C47.4111 40.5353 47.7574 40.7531 48.0092 41.002C48.2611 41.2509 48.4814 41.4998 48.6073 41.7798C48.7332 42.0598 48.7962 42.2776 48.8277 42.4954C48.8277 42.5887 48.7962 42.682 48.7333 42.7443C48.6703 42.8065 48.5759 42.8376 48.4814 42.8376H47.2852C47.1908 42.8376 47.1278 42.8065 47.0648 42.7754C47.0019 42.7443 46.9704 42.6509 46.9074 42.5576C46.7815 42.1842 46.5926 41.9353 46.3723 41.7798C46.1519 41.6242 45.8686 41.562 45.5223 41.562C45.0502 41.562 44.7039 41.7176 44.4206 41.9976C44.1372 42.2776 44.0113 42.7443 43.9798 43.3354C43.9484 43.6776 43.9484 43.9887 43.9798 44.2999C44.0113 44.9221 44.1372 45.3888 44.4206 45.6688C44.7039 45.9488 45.0502 46.1043 45.5223 46.1043C45.8686 46.1043 46.1519 46.0421 46.3723 45.8866C46.5926 45.731 46.7815 45.4821 46.9074 45.1088C46.9389 45.0154 47.0019 44.9532 47.0648 44.891C47.1278 44.8599 47.1908 44.8288 47.2852 44.8288H48.4814C48.5759 44.8288 48.6388 44.8599 48.7333 44.9221C48.7962 44.9843 48.8277 45.0465 48.8277 45.171C48.8277 45.3265 48.7647 45.5132 48.7018 45.731C48.6388 45.9488 48.5129 46.1355 48.324 46.3532C48.1666 46.571 47.9463 46.7577 47.6944 46.9444C47.4426 47.131 47.1278 47.2555 46.7815 47.3799C46.3723 47.3799 45.9631 47.4422 45.4909 47.4422Z" fill="#585959"/>
<path d="M53.6753 47.442C53.2031 47.442 52.7624 47.3487 52.3847 47.162C52.0069 46.9753 51.6921 46.7264 51.4718 46.4153C51.2514 46.1042 51.1255 45.762 51.1255 45.3575C51.1255 44.7353 51.3773 44.2064 51.9125 43.833C52.4476 43.4597 53.1087 43.2108 53.9586 43.0864L55.8474 42.8063V42.5263C55.8474 42.153 55.753 41.8419 55.5641 41.6552C55.3752 41.4374 55.0289 41.3441 54.5882 41.3441C54.2734 41.3441 53.9901 41.4063 53.7698 41.5308C53.5494 41.6552 53.4235 41.8419 53.2976 42.0597C53.2346 42.1841 53.1087 42.2463 52.9828 42.2463H51.9125C51.818 42.2463 51.7236 42.2152 51.6921 42.153C51.6292 42.0908 51.6292 42.0285 51.6292 41.9352C51.6292 41.7797 51.6921 41.6241 51.818 41.4063C51.944 41.1885 52.1014 41.0019 52.3532 40.8152C52.5735 40.6285 52.8883 40.4418 53.2661 40.3174C53.6438 40.1929 54.0846 40.0996 54.6197 40.0996C55.1863 40.0996 55.69 40.1618 56.0678 40.3174C56.477 40.473 56.7918 40.6596 57.0121 40.8774C57.264 41.1263 57.4214 41.3752 57.5473 41.7174C57.6417 42.0285 57.7047 42.3708 57.7047 42.713V46.9753C57.7047 47.0687 57.6732 47.1309 57.6103 47.1931C57.5473 47.2554 57.4529 47.2865 57.3899 47.2865H56.2881C56.1937 47.2865 56.0992 47.2554 56.0363 47.1931C55.9733 47.1309 55.9418 47.0376 55.9418 46.9753V46.4464C55.8159 46.602 55.6585 46.7576 55.4697 46.9131C55.2808 47.0687 55.0289 47.1931 54.7456 47.2865C54.3994 47.3798 54.0846 47.442 53.6753 47.442ZM54.1475 46.1664C54.4623 46.1664 54.7456 46.1042 55.0289 45.9487C55.2808 45.8242 55.5011 45.6064 55.6585 45.3264C55.8159 45.0464 55.8789 44.6731 55.8789 44.2375V43.9575L54.4938 44.1753C53.9586 44.2686 53.5494 44.3931 53.2976 44.5797C53.0457 44.7664 52.8883 44.9842 52.8883 45.2331C52.8883 45.4197 52.9513 45.6064 53.0772 45.7309C53.2031 45.8864 53.3605 45.9798 53.5494 46.042C53.7383 46.1042 53.9272 46.1664 54.1475 46.1664Z" fill="#585959"/>
<path d="M63.4657 47.4419C62.9935 47.4419 62.5843 47.3485 62.2065 47.193C61.8602 47.0374 61.5454 46.8196 61.2936 46.5085C61.0418 46.2285 60.8844 45.8863 60.7584 45.4818C60.6325 45.0774 60.5696 44.6418 60.5381 44.1751C60.5381 44.0195 60.5381 43.864 60.5381 43.7395C60.5381 43.6151 60.5381 43.4595 60.5381 43.304C60.5696 42.8373 60.6325 42.4328 60.7584 42.0284C60.8844 41.655 61.0732 41.3128 61.2936 41.0017C61.5454 40.7217 61.8287 40.4728 62.2065 40.3172C62.5528 40.1617 62.9935 40.0683 63.4657 40.0683C63.9694 40.0683 64.3786 40.1617 64.7249 40.3172C65.0711 40.4728 65.3545 40.6906 65.5748 40.9706V37.9527C65.5748 37.8594 65.6063 37.7972 65.6693 37.7349C65.7322 37.6727 65.7952 37.6416 65.9211 37.6416H67.0858C67.1803 37.6416 67.2432 37.6727 67.3062 37.7349C67.3691 37.7972 67.4006 37.8905 67.4006 37.9527V46.9441C67.4006 47.0374 67.3691 47.0996 67.3062 47.1618C67.2432 47.2241 67.1488 47.2552 67.0858 47.2552H66.0155C65.9211 47.2552 65.8266 47.2241 65.7637 47.1618C65.7007 47.0996 65.6693 47.0063 65.6693 46.9441V46.4774C65.4489 46.7574 65.1341 46.9752 64.7878 47.1618C64.4415 47.3485 64.0008 47.4419 63.4657 47.4419ZM63.9694 45.9796C64.3471 45.9796 64.6619 45.8863 64.8823 45.7307C65.1026 45.544 65.2915 45.3262 65.3859 45.0774C65.4804 44.7973 65.5433 44.5484 65.5748 44.2684C65.5748 44.1129 65.5748 43.9262 65.5748 43.7395C65.5748 43.5529 65.5748 43.3662 65.5748 43.2106C65.5748 42.9306 65.5119 42.6817 65.3859 42.4328C65.26 42.1839 65.1026 41.9662 64.8508 41.8106C64.6304 41.655 64.3156 41.5617 63.9694 41.5617C63.5916 41.5617 63.2768 41.655 63.0564 41.8106C62.8361 41.9662 62.6787 42.1839 62.5843 42.464C62.4898 42.744 62.4269 43.024 62.3954 43.3662C62.3954 43.6462 62.3954 43.8951 62.3954 44.1751C62.4269 44.4862 62.4583 44.7973 62.5843 45.0774C62.6787 45.3574 62.8361 45.5751 63.0564 45.7307C63.2768 45.9174 63.5916 45.9796 63.9694 45.9796Z" fill="#585959"/>
<path d="M73.6649 47.442C72.6576 47.442 71.8391 47.162 71.241 46.5709C70.6429 45.9798 70.3281 45.1709 70.2651 44.113C70.2651 44.0197 70.2651 43.8953 70.2651 43.7708C70.2651 43.6153 70.2651 43.5219 70.2651 43.4286C70.2966 42.7441 70.454 42.153 70.7373 41.6552C71.0206 41.1574 71.3984 40.7841 71.9021 40.5041C72.4058 40.2241 72.9724 40.0996 73.6335 40.0996C74.389 40.0996 74.9871 40.2552 75.4908 40.5663C75.9944 40.8774 76.3722 41.2819 76.624 41.8419C76.8759 42.3708 77.0018 42.993 77.0018 43.7086V43.9886C77.0018 44.0819 76.9703 44.1442 76.9073 44.2064C76.8444 44.2686 76.7499 44.2997 76.6555 44.2997H72.091C72.091 44.3619 72.091 44.3931 72.091 44.3931C72.091 44.7042 72.1539 45.0153 72.2798 45.2642C72.4058 45.5442 72.5632 45.7309 72.7835 45.9175C73.0039 46.0731 73.2872 46.1664 73.602 46.1664C73.8538 46.1664 74.0742 46.1353 74.2316 46.042C74.4204 45.9798 74.5464 45.8864 74.6723 45.762C74.7667 45.6686 74.8612 45.5753 74.8926 45.5131C74.9871 45.4197 75.05 45.3264 75.0815 45.3264C75.1445 45.2953 75.2074 45.2953 75.3019 45.2953H76.4981C76.5925 45.2953 76.6555 45.3264 76.7185 45.3886C76.7814 45.4509 76.8129 45.5131 76.7814 45.6064C76.7814 45.762 76.687 45.9175 76.5611 46.1353C76.4037 46.3531 76.2148 46.5398 75.9629 46.7576C75.7111 46.9442 75.3648 47.1309 74.9556 47.2554C74.6408 47.3798 74.2001 47.442 73.6649 47.442ZM72.1854 43.1797H75.2074V43.1486C75.2074 42.8063 75.1445 42.4952 75.0186 42.2152C74.8926 41.9352 74.7352 41.7485 74.4834 41.593C74.2631 41.4374 73.9797 41.3752 73.6649 41.3752C73.3501 41.3752 73.0668 41.4374 72.8465 41.593C72.6261 41.7485 72.4372 41.9352 72.3428 42.2152C72.2169 42.4952 72.1854 42.8063 72.1854 43.1486V43.1797Z" fill="#585959"/>
<path d="M80.244 47.3173C80.1496 47.3173 80.0866 47.2862 80.0236 47.2239C79.9607 47.1617 79.9292 47.0684 79.9292 47.0062V40.566C79.9292 40.4727 79.9607 40.4104 80.0236 40.3482C80.0866 40.286 80.181 40.2549 80.244 40.2549H81.3143C81.4087 40.2549 81.4717 40.286 81.5347 40.3482C81.5976 40.4104 81.6291 40.5038 81.6291 40.566V41.0327C81.818 40.7838 82.0698 40.566 82.4161 40.3793C82.7309 40.1927 83.1401 40.0993 83.5808 40.0993C84.6196 40.0682 85.3437 40.4727 85.7529 41.3127C85.9733 40.9393 86.2566 40.6593 86.6658 40.4416C87.075 40.2238 87.5158 40.0993 87.988 40.0993C88.4602 40.0993 88.9009 40.1927 89.2786 40.4104C89.6564 40.6282 89.9712 40.9705 90.1915 41.406C90.4119 41.8416 90.5378 42.4016 90.5378 43.055V46.9439C90.5378 47.0373 90.5063 47.0995 90.4434 47.1617C90.3804 47.2239 90.286 47.2551 90.223 47.2551H89.0897C88.9953 47.2551 88.9323 47.2239 88.8694 47.1617C88.8064 47.0995 88.7749 47.0062 88.7749 46.9439V43.1483C88.7749 42.7438 88.712 42.4327 88.5861 42.1838C88.4601 41.9349 88.3028 41.7794 88.1139 41.686C87.925 41.5927 87.6732 41.5305 87.4528 41.5305C87.2639 41.5305 87.0436 41.5927 86.8547 41.686C86.6658 41.7794 86.4769 41.966 86.351 42.1838C86.2251 42.4327 86.1621 42.7438 86.1621 43.1483V46.9439C86.1621 47.0373 86.1307 47.0995 86.0677 47.1617C86.0047 47.2239 85.9103 47.2551 85.8474 47.2551H84.6826C84.5882 47.2551 84.5252 47.2239 84.4622 47.1617C84.3993 47.0995 84.3678 47.0062 84.3678 46.9439V43.1483C84.3678 42.7438 84.3049 42.4327 84.1789 42.1838C84.053 41.9349 83.8956 41.7794 83.6753 41.686C83.4864 41.5927 83.266 41.5305 83.0457 41.5305C82.8253 41.5305 82.6364 41.5927 82.4161 41.686C82.2272 41.7794 82.0383 41.966 81.9124 42.1838C81.7865 42.4327 81.7235 42.7438 81.7235 43.1483V46.9439C81.7235 47.0373 81.6921 47.0995 81.6291 47.1617C81.5661 47.2239 81.4717 47.2551 81.4087 47.2551H80.244V47.3173Z" fill="#585959"/>
<path d="M94.725 49.8682C94.662 49.8682 94.599 49.8371 94.5361 49.7749C94.4731 49.7126 94.4417 49.6504 94.4417 49.5882C94.4417 49.5571 94.4417 49.526 94.4417 49.4948C94.4417 49.4637 94.4731 49.4326 94.5046 49.3704L95.5749 46.8503L92.9306 40.6902C92.8992 40.5968 92.8677 40.5346 92.8677 40.5035C92.8677 40.4102 92.8992 40.3479 92.9621 40.2857C93.0251 40.2235 93.088 40.1924 93.1825 40.1924H94.2843C94.3787 40.1924 94.4731 40.2235 94.5361 40.2857C94.599 40.3479 94.6305 40.4102 94.662 40.4724L96.4878 44.9214L98.3766 40.4724C98.4081 40.4102 98.4396 40.3479 98.5025 40.2857C98.5655 40.2235 98.6284 40.2235 98.7544 40.2235H99.8561C99.9191 40.2235 99.9821 40.2546 100.045 40.3168C100.108 40.3791 100.139 40.4413 100.139 40.5035C100.139 40.5657 100.108 40.6279 100.076 40.7213L96.2045 49.6193C96.173 49.6815 96.1101 49.7437 96.0786 49.806C96.0156 49.8682 95.9527 49.8682 95.8268 49.8682H94.725Z" fill="#585959"/>
<path d="M31.2619 32.0107C31.073 32.0107 30.9156 31.9485 30.8212 31.824C30.6953 31.6996 30.6323 31.544 30.6323 31.3885V15.2414C30.6323 15.0547 30.6953 14.8991 30.8212 14.8058C30.9471 14.6814 31.073 14.6191 31.2619 14.6191H38.093C40.2651 14.6191 41.9649 15.1169 43.2241 16.0814C44.4518 17.077 45.0814 18.4459 45.0814 20.2504C45.0814 21.4327 44.7981 22.4282 44.2315 23.2372C43.6648 24.0461 42.9093 24.6683 41.9649 25.0728L45.3962 31.1707C45.4592 31.264 45.4592 31.3574 45.4592 31.4507C45.4592 31.5752 45.3962 31.6996 45.3018 31.824C45.2073 31.9174 45.0814 31.9796 44.924 31.9796H41.5872C41.2724 31.9796 41.0206 31.8863 40.8946 31.7307C40.7372 31.5752 40.6428 31.4196 40.5798 31.2951L37.7152 25.8506H35.1654V31.3574C35.1654 31.5129 35.1024 31.6685 34.9765 31.7929C34.8506 31.9174 34.6932 31.9796 34.5043 31.9796H31.2619V32.0107ZM35.1339 22.3349H38.03C38.817 22.3349 39.4151 22.1482 39.7929 21.7749C40.1706 21.4015 40.391 20.8726 40.391 20.2504C40.391 19.5971 40.2021 19.0993 39.8243 18.6948C39.4466 18.2903 38.8485 18.1037 38.03 18.1037H35.1339V22.3349Z" fill="#585959"/>
<path d="M52.8569 32.2601C51.944 32.2601 51.157 32.1046 50.433 31.7623C49.709 31.4201 49.1423 30.9534 48.7331 30.3934C48.3239 29.8023 48.1035 29.1489 48.1035 28.4333C48.1035 27.2511 48.5757 26.3177 49.5516 25.6333C50.5274 24.9488 51.8181 24.4821 53.4235 24.2332L56.5715 23.7665V23.4243C56.5715 22.8332 56.4456 22.3665 56.1937 22.0554C55.9419 21.7443 55.4697 21.5887 54.8087 21.5887C54.3365 21.5887 53.9587 21.682 53.6754 21.8687C53.3921 22.0554 53.1402 22.3043 52.9828 22.6154C52.8254 22.8332 52.6366 22.9265 52.3532 22.9265H49.5516C49.3627 22.9265 49.2368 22.8643 49.1109 22.771C49.0164 22.6776 48.9535 22.5221 48.9849 22.3976C48.9849 22.0865 49.1109 21.7443 49.3312 21.3709C49.5516 20.9976 49.8978 20.5931 50.37 20.2198C50.8422 19.8464 51.4403 19.5353 52.1644 19.2864C52.8884 19.0375 53.8013 18.9131 54.8401 18.9131C55.9104 18.9131 56.8233 19.0375 57.6103 19.2864C58.3658 19.5353 58.9954 19.8776 59.4991 20.3131C59.9713 20.7487 60.349 21.2776 60.5694 21.8998C60.7898 22.491 60.9157 23.1754 60.9157 23.891V31.4201C60.9157 31.5756 60.8527 31.7312 60.7268 31.8557C60.6009 31.9801 60.4435 32.0423 60.2861 32.0423H57.39C57.2011 32.0423 57.0437 31.9801 56.9493 31.8557C56.8233 31.7312 56.7604 31.5756 56.7604 31.4201V30.549C56.54 30.8601 56.2567 31.1401 55.879 31.4201C55.5012 31.7001 55.092 31.8868 54.5883 32.0423C54.0846 32.1668 53.518 32.2601 52.8569 32.2601ZM54.0531 29.4289C54.5253 29.4289 54.966 29.3356 55.3753 29.1178C55.753 28.9 56.0678 28.5889 56.3197 28.1533C56.54 27.7178 56.6659 27.1578 56.6659 26.5044V26.1622L54.5253 26.5355C53.7383 26.66 53.1717 26.8777 52.794 27.1578C52.4477 27.4378 52.2588 27.7489 52.2588 28.1222C52.2588 28.4022 52.3532 28.6511 52.5106 28.8378C52.668 29.0245 52.8884 29.18 53.1717 29.3045C53.4235 29.3667 53.7383 29.4289 54.0531 29.4289Z" fill="#585959"/>
<path d="M65.6374 32.0106C65.4485 32.0106 65.2911 31.9484 65.1967 31.8239C65.0708 31.6995 65.0078 31.5439 65.0078 31.3884V14.9924C65.0078 14.8057 65.0708 14.6501 65.1967 14.5568C65.3226 14.4323 65.4485 14.3701 65.6374 14.3701H68.5335C68.6909 14.3701 68.8483 14.4323 68.9742 14.5568C69.1001 14.6812 69.1631 14.8368 69.1631 14.9924V23.2992L72.6573 19.5036C72.7518 19.3791 72.8777 19.2858 72.9721 19.1925C73.098 19.0991 73.2554 19.068 73.4758 19.068H76.8441C77.0015 19.068 77.1274 19.1302 77.2219 19.2236C77.3163 19.3169 77.3793 19.4725 77.3793 19.5969C77.3793 19.6591 77.3793 19.7525 77.3478 19.8147C77.3163 19.908 77.2533 19.9703 77.1904 20.0014L72.6573 24.8237L77.7885 31.015C77.9144 31.1395 77.9774 31.2639 77.9774 31.3884C77.9774 31.5439 77.9144 31.6995 77.82 31.7928C77.7255 31.8861 77.5681 31.9484 77.4107 31.9484H73.9795C73.7276 31.9484 73.5388 31.9173 73.4128 31.8239C73.2869 31.7306 73.1925 31.6372 73.098 31.5439L69.1946 26.8771V31.3884C69.1946 31.5439 69.1316 31.6995 69.0057 31.8239C68.8798 31.9484 68.7224 32.0106 68.565 32.0106H65.6374Z" fill="#585959"/>
<path d="M84.5884 32.2601C83.6755 32.2601 82.8885 32.1046 82.1644 31.7623C81.4404 31.4201 80.8738 30.9534 80.4646 30.3934C80.0553 29.8023 79.835 29.1489 79.835 28.4333C79.835 27.2511 80.3072 26.3177 81.283 25.6333C82.2589 24.9488 83.5495 24.4821 85.155 24.2332L88.3029 23.7665V23.4243C88.3029 22.8332 88.177 22.3665 87.9252 22.0554C87.6734 21.7443 87.2012 21.5887 86.5401 21.5887C86.0679 21.5887 85.6901 21.682 85.4068 21.8687C85.1235 22.0554 84.8717 22.3043 84.7143 22.6154C84.5569 22.8332 84.368 22.9265 84.0847 22.9265H81.283C81.0941 22.9265 80.9682 22.8643 80.8423 22.771C80.7479 22.6776 80.6849 22.5221 80.7164 22.3976C80.7164 22.0865 80.8423 21.7443 81.0627 21.3709C81.283 20.9976 81.6293 20.5931 82.1015 20.2198C82.5737 19.8464 83.1718 19.5353 83.8958 19.2864C84.6198 19.0375 85.5328 18.9131 86.5716 18.9131C87.6419 18.9131 88.5548 19.0375 89.3418 19.2864C90.0973 19.5353 90.7269 19.8776 91.2305 20.3131C91.7027 20.7487 92.0805 21.2776 92.3008 21.8998C92.5212 22.491 92.6471 23.1754 92.6471 23.891V31.4201C92.6471 31.5756 92.5842 31.7312 92.4582 31.8557C92.3323 31.9801 92.1749 32.0423 92.0175 32.0423H89.1214C88.9325 32.0423 88.7751 31.9801 88.6807 31.8557C88.5548 31.7312 88.4918 31.5756 88.4918 31.4201V30.549C88.2715 30.8601 87.9881 31.1401 87.6104 31.4201C87.2326 31.7001 86.8234 31.8868 86.3197 32.0423C85.8161 32.1668 85.2494 32.2601 84.5884 32.2601ZM85.7846 29.4289C86.2568 29.4289 86.6975 29.3356 87.1067 29.1178C87.4845 28.9 87.7993 28.5889 88.0511 28.1533C88.2715 27.7178 88.3974 27.1578 88.3974 26.5044V26.1622L86.2568 26.5355C85.4698 26.66 84.9032 26.8777 84.5254 27.1578C84.1791 27.4378 83.9903 27.7489 83.9903 28.1222C83.9903 28.4022 84.0847 28.6511 84.2421 28.8378C84.3995 29.0245 84.6198 29.18 84.9032 29.3045C85.155 29.3667 85.4383 29.4289 85.7846 29.4289Z" fill="#585959"/>
<path d="M97.3688 32.0108C97.18 32.0108 97.0226 31.9485 96.9281 31.8241C96.8022 31.6996 96.7393 31.5441 96.7393 31.3885V19.7215C96.7393 19.5349 96.8022 19.3793 96.9281 19.286C97.0541 19.1615 97.18 19.0993 97.3688 19.0993H100.108C100.296 19.0993 100.454 19.1615 100.548 19.286C100.674 19.4104 100.737 19.566 100.737 19.7215V20.5616C101.083 20.126 101.556 19.7215 102.154 19.3793C102.752 19.0371 103.476 18.8504 104.294 18.8504C106.246 18.7882 107.568 19.5038 108.292 20.9971C108.67 20.3749 109.237 19.846 109.929 19.4727C110.653 19.0682 111.409 18.8815 112.29 18.8815C113.172 18.8815 113.927 19.0682 114.651 19.4727C115.344 19.8771 115.91 20.4682 116.32 21.246C116.729 22.0549 116.949 23.0816 116.949 24.3572V31.3885C116.949 31.5441 116.886 31.6996 116.76 31.8241C116.634 31.9485 116.477 32.0108 116.32 32.0108H113.423C113.235 32.0108 113.077 31.9485 112.951 31.8241C112.825 31.6996 112.762 31.5441 112.762 31.3885V24.5128C112.762 23.9217 112.668 23.4861 112.511 23.1439C112.353 22.8016 112.133 22.5527 111.818 22.3972C111.535 22.2416 111.22 22.1794 110.842 22.1794C110.527 22.1794 110.244 22.2416 109.961 22.3972C109.677 22.5527 109.426 22.8016 109.268 23.1439C109.079 23.4861 109.016 23.9528 109.016 24.5128V31.3885C109.016 31.5441 108.953 31.6996 108.827 31.8241C108.701 31.9485 108.544 32.0108 108.387 32.0108H105.491C105.302 32.0108 105.144 31.9485 105.05 31.8241C104.924 31.6996 104.861 31.5441 104.861 31.3885V24.5128C104.861 23.9217 104.767 23.4861 104.578 23.1439C104.389 22.8016 104.168 22.5527 103.885 22.3972C103.602 22.2416 103.287 22.1794 102.941 22.1794C102.626 22.1794 102.311 22.2416 102.028 22.3972C101.745 22.5527 101.493 22.8016 101.335 23.1439C101.146 23.4861 101.083 23.9217 101.083 24.4817V31.3885C101.083 31.5441 101.02 31.6996 100.895 31.8241C100.769 31.9485 100.611 32.0108 100.454 32.0108H97.3688Z" fill="#585959"/>
<path d="M121.576 17.2326C121.387 17.2326 121.23 17.1704 121.136 17.0459C121.01 16.9215 120.947 16.7659 120.947 16.6103V14.3703C120.947 14.2147 121.01 14.0592 121.136 13.9347C121.262 13.8103 121.387 13.748 121.576 13.748H124.598C124.756 13.748 124.913 13.8103 125.039 13.9347C125.165 14.0592 125.228 14.2147 125.228 14.3703V16.6103C125.228 16.797 125.165 16.9526 125.039 17.0459C124.913 17.1704 124.756 17.2326 124.598 17.2326H121.576ZM121.608 32.0108C121.419 32.0108 121.262 31.9485 121.167 31.8241C121.041 31.6996 120.978 31.5441 120.978 31.3885V19.7215C120.978 19.5349 121.041 19.3793 121.167 19.286C121.293 19.1615 121.419 19.0993 121.608 19.0993H124.567C124.756 19.0993 124.913 19.1615 125.008 19.286C125.134 19.4104 125.196 19.566 125.196 19.7215V31.3885C125.196 31.5441 125.134 31.6996 125.008 31.8241C124.882 31.9485 124.724 32.0108 124.567 32.0108H121.608Z" fill="#585959"/>
<path d="M130.831 32.0109C130.642 32.0109 130.485 31.9487 130.391 31.8243C130.265 31.6998 130.202 31.5443 130.202 31.3887V19.7217C130.202 19.535 130.265 19.3795 130.391 19.2862C130.516 19.1617 130.642 19.0995 130.831 19.0995H133.727C133.916 19.0995 134.074 19.1617 134.2 19.2862C134.325 19.4106 134.388 19.5662 134.388 19.7217V20.6551C134.798 20.1573 135.364 19.7217 136.057 19.3795C136.749 19.0373 137.599 18.8506 138.544 18.8506C139.52 18.8506 140.37 19.0684 141.125 19.5039C141.881 19.9395 142.447 20.5617 142.888 21.4018C143.329 22.2418 143.517 23.2685 143.517 24.4819V31.3887C143.517 31.5443 143.455 31.6998 143.329 31.8243C143.203 31.9487 143.045 32.0109 142.888 32.0109H139.74C139.583 32.0109 139.425 31.9487 139.299 31.8243C139.173 31.6998 139.11 31.5443 139.11 31.3887V24.6063C139.11 23.8285 138.921 23.2374 138.544 22.8018C138.166 22.3662 137.599 22.1796 136.875 22.1796C136.183 22.1796 135.648 22.3973 135.238 22.8018C134.829 23.2374 134.609 23.8285 134.609 24.6063V31.3887C134.609 31.5443 134.546 31.6998 134.42 31.8243C134.294 31.9487 134.137 32.0109 133.979 32.0109H130.831Z" fill="#585959"/>
</svg>
